<?xml version="1.0" encoding="UTF-8"?>
<svg width="34px" height="34px" viewBox="0 0 34 34" version="1.1" xmlns="http://www.w3.org/2000/svg" xmlns:xlink="http://www.w3.org/1999/xlink">
    <!-- Generator: Sketch 52 (66869) - http://www.bohemiancoding.com/sketch -->
    <title>bmxz</title>
    <desc>Created with Sketch.</desc>
    <defs>
        <linearGradient x1="0%" y1="0%" x2="100%" y2="100%" id="linearGradient-1">
            <stop stop-color="#4DE8D0" offset="0%"></stop>
            <stop stop-color="#1FD3BD" offset="100%"></stop>
        </linearGradient>
        <polygon id="path-2" points="0 0 16 0 16 15.7538462 0 15.7538462"></polygon>
    </defs>
    <g id="Page-1" stroke="none" stroke-width="1" fill="none" fill-rule="evenodd">
        <g id="考试中心-段级位考试" transform="translate(-47.000000, -104.000000)">
            <g id="分组-2" transform="translate(47.000000, 104.000000)">
                <g id="分组-5">
                    <g id="分组-4">
                        <rect id="矩形-copy-7" fill="url(#linearGradient-1)" x="0" y="0" width="34" height="34" rx="14"></rect>
                        <g id="jibenxinxi" transform="translate(9.000000, 9.000000)">
                            <mask id="mask-3" fill="white">
                                <use xlink:href="#path-2"></use>
                            </mask>
                            <g id="Clip-2"></g>
                            <path d="M7.99998637,0 C7.60162936,0 7.20327235,0.0764278675 6.89963678,0.231172115 L0.486647156,3.49857153 C-0.118949282,3.80794626 -0.118949282,4.31038156 0.486647156,4.61977904 L6.89963678,7.88717845 C7.20327235,8.04189995 7.60162936,8.11835057 8.00181738,8.11835057 C8.40015206,8.11835057 8.79850907,8.04189995 9.10223396,7.88717845 L15.5169653,4.61977904 C16.1225617,4.31038156 16.1225617,3.80794626 15.5169653,3.49857153 L9.10040295,0.231172115 C8.79667806,0.0764278675 8.39832105,0 7.99998637,0 Z M7.99998637,12.1119626 C7.50873894,12.1119626 7.0174915,12.0118942 6.62453822,11.8116436 L0.340099115,8.61161634 C0.0364858717,8.45689485 -0.086861893,8.08012526 0.0650005523,7.76886201 C0.216862998,7.45939627 0.586616009,7.33379883 0.892060266,7.48854307 L7.17473534,10.6903451 C7.60703308,10.9105957 8.39300665,10.9105957 8.82711307,10.6903451 L15.1097212,7.49031782 C15.4133567,7.33557357 15.7831767,7.46126203 15.9350392,7.77065951 C16.0868123,8.08012526 15.9635539,8.45689485 15.6599183,8.61161634 L9.37550151,11.8116436 C8.9449678,12.0173095 8.47517895,12.1192664 7.99998637,12.1119626 Z M7.99998637,16 C7.50873894,16 7.0174915,15.8999316 6.62453822,15.699681 L0.341930128,12.497879 C0.0382275672,12.3431347 -0.0850308798,11.9663879 0.0668315654,11.6568994 C0.218694011,11.3474337 0.588447022,11.2218362 0.892060266,11.3765805 L7.17473534,14.5783825 C7.60703308,14.7986104 8.39300665,14.7986104 8.82711307,14.5783825 L15.1097212,11.3765805 C15.4133567,11.2218362 15.7831767,11.3474337 15.9350392,11.6568994 C16.0868123,11.9663879 15.9635539,12.3431347 15.6599183,12.497879 L9.37550151,15.699681 C8.98431225,15.8999316 8.49306482,16 7.99998637,16 Z" id="Fill-1" fill="#FFFFFF" mask="url(#mask-3)"></path>
                        </g>
                    </g>
                </g>
            </g>
        </g>
    </g>
</svg>