<?xml version="1.0" encoding="UTF-8"?>
<svg width="24px" height="24px" viewBox="0 0 24 24" version="1.1" xmlns="http://www.w3.org/2000/svg" xmlns:xlink="http://www.w3.org/1999/xlink">
    <!-- Generator: Sketch 52 (66869) - http://www.bohemiancoding.com/sketch -->
    <title>分组 4</title>
    <desc>Created with Sketch.</desc>
    <g id="Page-1" stroke="none" stroke-width="1" fill="none" fill-rule="evenodd">
        <g id="已付款-考试报名-订单详情-copy-2" transform="translate(-176.000000, -379.000000)">
            <g id="分组-6" transform="translate(176.000000, 379.000000)">
                <g id="分组-4">
                    <circle id="椭圆形" fill="#FFFFFF" cx="12" cy="12" r="12"></circle>
                    <g id="分组-2" transform="translate(6.000000, 7.000000)" fill="#2069E5">
                        <path d="M0.832634645,0.136867314 C0.642186858,-0.0448798165 0.334925219,-0.0462671991 0.143333183,0.136579506 C-0.0469290499,0.318193801 -0.0478645503,0.611735932 0.141067881,0.79208092 L5.31244471,5.72820398 C5.69204141,6.09049535 6.30722959,6.09070198 6.68703503,5.72820398 L11.8584119,0.79208092 C12.0474061,0.611647376 12.0477386,0.319463109 11.8561466,0.136579506 C11.6658843,-0.0449978916 11.3584681,-0.0460384286 11.1668451,0.136867314 L6.3445259,4.7398119 C6.15410904,4.92159593 5.8465768,4.92271764 5.65495384,4.7398119 L0.832634645,0.136867314 Z" id="Fill-1-Copy" transform="translate(6.000000, 3.000000) rotate(-360.000000) translate(-6.000000, -3.000000) "></path>
                        <path d="M0.832634645,5.13686731 C0.642186858,4.95512018 0.334925219,4.9537328 0.143333183,5.13657951 C-0.0469290499,5.3181938 -0.0478645503,5.61173593 0.141067881,5.79208092 L5.31244471,10.728204 C5.69204141,11.0904954 6.30722959,11.090702 6.68703503,10.728204 L11.8584119,5.79208092 C12.0474061,5.61164738 12.0477386,5.31946311 11.8561466,5.13657951 C11.6658843,4.95500211 11.3584681,4.95396157 11.1668451,5.13686731 L6.3445259,9.7398119 C6.15410904,9.92159593 5.8465768,9.92271764 5.65495384,9.7398119 L0.832634645,5.13686731 Z" id="Fill-1-Copy-2" transform="translate(6.000000, 8.000000) rotate(-360.000000) translate(-6.000000, -8.000000) "></path>
                    </g>
                </g>
            </g>
        </g>
    </g>
</svg>