<?xml version="1.0" encoding="UTF-8"?>
<svg width="31px" height="30px" viewBox="0 0 31 30" version="1.1" xmlns="http://www.w3.org/2000/svg" xmlns:xlink="http://www.w3.org/1999/xlink">
    <!-- Generator: Sketch 52 (66869) - http://www.bohemiancoding.com/sketch -->
    <title>报名成功</title>
    <desc>Created with Sketch.</desc>
    <defs>
        <polygon id="path-1" points="0 0 25 0 25 16.8170139 0 16.8170139"></polygon>
    </defs>
    <g id="Page-1" stroke="none" stroke-width="1" fill="none" fill-rule="evenodd">
        <g id="报名成功" transform="translate(-125.000000, -124.000000)">
            <g id="分组-4" transform="translate(125.000000, 124.000000)">
                <g id="分组-3" transform="translate(3.000000, 3.000000)">
                    <circle id="椭圆形-copy-7" stroke="#FFFFFF" stroke-width="1.5" cx="12.5" cy="12.5" r="12.5"></circle>
                    <g id="duigou-copy-2" transform="translate(2.000000, 4.000000)">
                        <mask id="mask-2" fill="white">
                            <use xlink:href="#path-1"></use>
                        </mask>
                        <g id="Clip-2"></g>
                        <path d="M7.53547816,14.3053819 C7.3214141,14.3053819 7.10735005,14.2262102 6.94397888,14.067998 L2.03085523,9.30788135 C1.70400064,8.99126011 1.70400064,8.47802114 2.03085523,8.16148734 C2.35770983,7.84488796 2.8871339,7.8449754 3.21387624,8.1613999 L7.53547816,12.3483414 L16.4289809,3.73189398 C16.7557457,3.4152946 17.2852596,3.4152946 17.6120019,3.73189398 C17.9388565,4.04840592 17.9388565,4.56166675 17.6120019,4.87826613 L8.12708969,14.0679106 C7.96362872,14.2262102 7.74956466,14.3053819 7.53547816,14.3053819 Z" id="Fill-1" fill="#FFFFFF" mask="url(#mask-2)"></path>
                    </g>
                </g>
            </g>
        </g>
    </g>
</svg>