<?xml version="1.0" encoding="UTF-8"?>
<svg width="46px" height="46px" viewBox="0 0 46 46" version="1.1" xmlns="http://www.w3.org/2000/svg" xmlns:xlink="http://www.w3.org/1999/xlink">
    <!-- Generator: Sketch 52 (66869) - http://www.bohemiancoding.com/sketch -->
    <title>考试中心</title>
    <desc>Created with Sketch.</desc>
    <defs>
        <linearGradient x1="50%" y1="2.47471098%" x2="50%" y2="100%" id="linearGradient-1">
            <stop stop-color="#4DE8D0" offset="0%"></stop>
            <stop stop-color="#1FD3BD" offset="100%"></stop>
        </linearGradient>
        <polygon id="path-2" points="0 0 23 0 23 23 0 23"></polygon>
    </defs>
    <g id="Page-1" stroke="none" stroke-width="1" fill="none" fill-rule="evenodd">
        <g id="考试中心" transform="translate(-28.000000, -338.000000)">
            <g id="分组-10" transform="translate(28.000000, 338.000000)">
                <g id="分组-4">
                    <rect id="矩形" fill="url(#linearGradient-1)" x="0" y="0" width="46" height="46" rx="18"></rect>
                    <g id="kaoshi" transform="translate(11.500000, 11.500000)">
                        <mask id="mask-3" fill="white">
                            <use xlink:href="#path-2"></use>
                        </mask>
                        <g id="Clip-2"></g>
                        <path d="M1.43753008,20.9792564 L21.5624699,20.9792564 C21.9961579,20.9940486 22.3444624,21.1287819 22.6072871,21.3833602 C22.8685074,21.6380348 23,21.9813658 23,22.4167865 L23,23 L0,23 L0,22.4167865 C0,22.0421386 0.131492562,21.7119954 0.392680814,21.4277366 C0.65553759,21.143574 1.00371372,20.9940486 1.43753008,20.9792564 Z M21.136932,7.61466432 L18.5544412,1.01035573 C18.4049157,0.711304811 18.1978583,0.468277807 17.9366379,0.280889675 C17.6738132,0.0936298917 17.4010737,0 17.1169111,0 L5.88469324,0 C5.60043443,0.0147921111 5.33433687,0.105149128 5.08790864,0.2694667 C4.8415125,0.433688011 4.68043571,0.629194156 4.60487081,0.852680172 L1.86467234,7.61466432 C1.78910744,7.83975469 1.75952321,8.0795409 1.77431533,8.33421549 C1.78910744,8.58879382 1.87118601,8.8286763 2.02074355,9.05379875 L9.34296688,19.2740245 C9.49236399,19.4841944 9.6682008,19.630479 9.87025269,19.7125897 C10.0723046,19.7947966 10.2777577,19.8358038 10.4879276,19.8358038 L10.7803686,19.8358038 L10.7803686,13.0721832 L12.352632,13.0721832 L12.352632,19.6977976 C12.5708237,19.6847382 12.7826621,19.6194411 12.970307,19.5072649 C13.157663,19.3956021 13.2890272,19.2641096 13.3629878,19.1145841 L20.7081533,8.91742897 C21.1287819,8.48374095 21.2716974,8.04995668 21.136932,7.61466432 Z M11.6346852,9.9277847 C10.6917443,9.89820048 9.91299259,9.57620734 9.29859054,8.9618053 C8.6841885,8.34737117 8.36216328,7.56200954 8.33261114,6.60264006 C8.36216328,5.65960287 8.6841885,4.88085117 9.29859054,4.26644913 C9.91299259,3.65201499 10.6917443,3.33002186 11.6346852,3.30043764 C12.5925145,3.33002186 13.3794163,3.65201499 13.9938184,4.26644913 C14.6082525,4.88085117 14.9302456,5.65960287 14.9598299,6.60264006 C14.9302456,7.50120466 14.6082525,8.27180626 13.9938184,8.91579253 C13.3794163,9.56141523 12.594151,9.89820048 11.6346852,9.9277847 Z" id="Fill-1" fill="#FFFFFF" mask="url(#mask-3)"></path>
                    </g>
                </g>
            </g>
        </g>
    </g>
</svg>