<?xml version="1.0" encoding="UTF-8"?>
<svg width="46px" height="46px" viewBox="0 0 46 46" version="1.1" xmlns="http://www.w3.org/2000/svg" xmlns:xlink="http://www.w3.org/1999/xlink">
    <!-- Generator: Sketch 52 (66869) - http://www.bohemiancoding.com/sketch -->
    <title>分组 5</title>
    <desc>Created with Sketch.</desc>
    <defs>
        <linearGradient x1="50%" y1="0%" x2="50%" y2="100%" id="linearGradient-1">
            <stop stop-color="#FFD030" offset="0%"></stop>
            <stop stop-color="#F1B116" offset="100%"></stop>
        </linearGradient>
    </defs>
    <g id="Page-1" stroke="none" stroke-width="1" fill="none" fill-rule="evenodd">
        <g id="考试中心" transform="translate(-119.000000, -338.000000)">
            <g id="分组-9" transform="translate(119.000000, 338.000000)">
                <g id="zaixiankaoshi-copy">
                    <g id="分组">
                        <g id="分组-11">
                            <g id="分组-5">
                                <rect id="矩形-copy-4" fill="url(#linearGradient-1)" x="0" y="0" width="46" height="46" rx="18"></rect>
                                <g id="kaoshi-(1)" transform="translate(11.500000, 11.500000)"></g>
                            </g>
                        </g>
                        <path d="M23.0982114,12 C16.4164925,12 11,17.4166783 11,24.0983972 C11,30.7799768 16.4164925,36.1966086 23.0982114,36.1966086 C29.7797445,36.1966086 35.1964228,30.7799768 35.1964228,24.0983972 C35.1964228,20.8897561 33.9217189,17.8124971 31.6529152,15.5435075 C29.3841115,13.2747038 26.3068525,12 23.0982114,12 Z M23.4627642,14.9065273 C23.5596748,14.7277584 23.7273868,14.5981882 23.9246458,14.549036 C24.1219048,14.4998374 24.3307782,14.5357491 24.5002555,14.6480836 L27.0380023,16.1182346 C27.2087805,16.2135192 27.3327294,16.3746341 27.3811847,16.5641347 C27.42964,16.753403 27.3982346,16.9542857 27.2944483,17.1198142 L26.5593031,18.3696167 L22.7717073,16.1663182 L23.4627642,14.9065273 Z M19.3804878,30.5699884 L16.8808827,31.9722648 C16.6544019,32.0967247 16.3794657,32.0950987 16.1546109,31.967712 C15.9297561,31.8403252 15.7867596,31.605482 15.7771429,31.3472706 L15.7409988,28.4788386 C15.7429965,28.3489431 15.781324,28.2218815 15.8511963,28.1124739 L22.3590708,16.8172822 L26.1827178,19.0207201 L19.675029,30.3077816 C19.5953542,30.4141231 19.4953775,30.5032288 19.3804878,30.5699884 Z M29.7140534,30.6060859 L23.8311731,30.6060859 C23.5685947,30.6060859 23.3259466,30.4660163 23.1945645,30.2386063 C23.0633682,30.0110569 23.0633682,29.7308711 23.1945645,29.5034611 C23.3259466,29.2760976 23.5685947,29.1359814 23.8311731,29.1359814 L29.7080604,29.1359814 C30.114007,29.1359814 30.4432056,29.4649942 30.4432056,29.8709408 C30.4432056,30.2770732 30.114007,30.6060859 29.7080604,30.6060859 L29.7140534,30.6060859 Z M29.7140534,27.6636934 L26.0366551,27.6636934 C25.630662,27.6636934 25.3015099,27.3346806 25.3015099,26.9285017 C25.3015099,26.5225552 25.630662,26.1935424 26.0366551,26.1935424 L29.7080604,26.1935424 C30.114007,26.1935424 30.4432056,26.5225552 30.4432056,26.9285017 C30.4432056,27.3346806 30.114007,27.6636934 29.7080604,27.6636934 L29.7140534,27.6636934 Z" id="Fill-1" fill="#FFFFFF"></path>
                    </g>
                </g>
            </g>
        </g>
    </g>
</svg>