<?xml version="1.0" encoding="UTF-8"?>
<svg width="46px" height="46px" viewBox="0 0 46 46" version="1.1" xmlns="http://www.w3.org/2000/svg" xmlns:xlink="http://www.w3.org/1999/xlink">
    <!-- Generator: Sketch 52 (66869) - http://www.bohemiancoding.com/sketch -->
    <title>分组 6</title>
    <desc>Created with Sketch.</desc>
    <defs>
        <linearGradient x1="50%" y1="0%" x2="50%" y2="100%" id="linearGradient-1">
            <stop stop-color="#B2C8FF" offset="0%"></stop>
            <stop stop-color="#7A97FE" offset="100%"></stop>
        </linearGradient>
    </defs>
    <g id="Page-1" stroke="none" stroke-width="1" fill="none" fill-rule="evenodd">
        <g id="考试中心" transform="translate(-210.000000, -338.000000)">
            <g id="分组-12" transform="translate(210.000000, 338.000000)">
                <g id="分组-6">
                    <rect id="矩形-copy-5" fill="url(#linearGradient-1)" x="0" y="0" width="46" height="46" rx="18"></rect>
                    <g id="youcaijiaolianhuodongkanban-copy" transform="translate(13.000000, 11.000000)" fill="#FFFFFF">
                        <path d="M9.76583747,0 C6.53471264,0 3.90625,2.54090865 3.90625,5.66385711 C3.90625,8.78725059 6.53471264,11.328125 9.76583747,11.328125 C12.9965374,11.328125 15.625,8.78725059 15.625,5.66385711 C15.625,2.54090865 12.9965374,0 9.76583747,0 Z" id="Fill-1"></path>
                        <path d="M19.0966906,18.5409121 C18.9470154,17.6746625 18.8491575,17.287386 18.1307096,16.529832 C17.2272644,15.6131494 14.9025833,12.9695399 13.9019414,11.8626224 C13.7509438,11.6299249 13.3946256,11.7170013 13.3520999,11.8606826 C12.8047989,13.7034291 11.9823682,14.9916589 10.8107187,16.6385276 C10.693686,15.962654 10.5291859,14.8774615 10.4068636,14.085874 C10.6757291,13.8471105 10.8490684,13.5006389 10.8490684,13.1099413 C10.8490684,12.8342876 10.7634254,12.5795477 10.619179,12.3690338 C10.4987706,12.1931176 10.3346882,12.0527162 10.1453061,11.9546362 C9.97008763,11.8638567 9.7744763,11.8076397 9.56404013,11.8076397 C9.35457837,11.8076397 9.16004585,11.8632924 8.98534938,11.9532608 C8.79641967,12.0505296 8.63299843,12.1902257 8.5124161,12.3649074 C8.36615131,12.5762326 8.27901188,12.8323479 8.27901188,13.1099413 C8.27901188,13.4869902 8.43957951,13.8238337 8.69240219,14.0616097 C8.56311984,14.8974584 8.40721542,15.7378213 8.2492578,16.6493901 C7.06796862,14.9862981 6.28413131,13.6490108 5.75833669,11.8600125 C5.71796859,11.7226442 5.3150183,11.6373664 5.11519616,11.8604005 C3.95008903,12.9621337 1.3377504,15.9053437 0.404551089,17.0009755 C0,17.4759986 0,18.1874222 0,18.9740369 C0,20.7185624 0.00991802669,21.7989232 0.00991802669,21.7989232 C0,22.4019333 0.467887259,22.65625 0.805691768,22.65625 L18.3225277,22.65625 C18.3225277,22.65625 18.7406508,22.6184781 18.9169829,22.3572842 C19.1193802,22.0575073 19.1361191,21.7752232 19.1363975,21.7318437 C19.1363975,21.7318437 19.1597484,18.905723 19.0966906,18.5409121 Z" id="Fill-2"></path>
                        <path d="M18.4430009,23.4375 L1.08828354,23.4375 C0.703097418,23.4375 0.390625,23.7870818 0.390625,24.21875 C0.390625,24.6504182 0.703097418,25 1.08828354,25 L18.4430009,25 C18.8281871,25 19.140625,24.6504182 19.140625,24.21875 C19.140625,23.7870818 18.8281871,23.4375 18.4430009,23.4375 Z" id="Fill-3"></path>
                    </g>
                </g>
            </g>
        </g>
    </g>
</svg>