<?xml version="1.0" encoding="UTF-8"?>
<svg width="46px" height="46px" viewBox="0 0 46 46" version="1.1" xmlns="http://www.w3.org/2000/svg" xmlns:xlink="http://www.w3.org/1999/xlink">
    <!-- Generator: Sketch 52 (66869) - http://www.bohemiancoding.com/sketch -->
    <title>考试中心</title>
    <desc>Created with Sketch.</desc>
    <defs>
        <linearGradient x1="50%" y1="0%" x2="50%" y2="100%" id="linearGradient-1">
            <stop stop-color="#8BD9FF" offset="0%"></stop>
            <stop stop-color="#53B1FF" offset="100%"></stop>
        </linearGradient>
        <polygon id="path-2" points="0.00187374749 0.0107105263 15.5629719 0.0107105263 15.5629719 21.9678684 0.00187374749 21.9678684"></polygon>
    </defs>
    <g id="Page-1" stroke="none" stroke-width="1" fill="none" fill-rule="evenodd">
        <g id="考试中心" transform="translate(-301.000000, -338.000000)">
            <g id="分组-13" transform="translate(301.000000, 338.000000)">
                <g id="分组-8">
                    <g id="分组-7" fill="url(#linearGradient-1)">
                        <rect id="矩形-copy-6" x="0" y="0" width="46" height="46" rx="18"></rect>
                    </g>
                    <g id="wenjuan-copy" transform="translate(13.000000, 12.000000)">
                        <g id="分组">
                            <mask id="mask-3" fill="white">
                                <use xlink:href="#path-2"></use>
                            </mask>
                            <g id="Clip-2"></g>
                            <path d="M14.2837958,0.0107105263 L1.27917619,0.0107105263 C0.575677689,0.0107105263 0,0.603616959 0,1.32816959 L0,20.6504094 C0,21.3749942 0.575677689,21.9678684 1.27917619,21.9678684 L14.2837958,21.9678684 C14.9872943,21.9678684 15.5629719,21.3749942 15.5629719,20.6504094 L15.5629719,1.32816959 C15.5629719,0.603616959 14.9872943,0.0107105263 14.2837958,0.0107105263 Z M5.11657983,10.9892251 L2.55835237,10.9892251 C2.08929092,10.9892251 1.7055162,10.5940936 1.7055162,10.1110263 C1.7055162,9.6279269 2.08929092,9.23266667 2.55835237,9.23266667 L5.11657983,9.23266667 C5.58561005,9.23266667 5.96938477,9.6279269 5.96938477,10.1110263 C5.96938477,10.5940936 5.58561005,10.9892251 5.11657983,10.9892251 Z M8.96469506,7.91533626 L2.56897027,7.91533626 C2.09990882,7.91533626 1.7161341,7.52007602 1.7161341,7.03697661 C1.7161341,6.55390936 2.09990882,6.15877778 2.56897027,6.15877778 L8.96469506,6.15877778 C9.4336316,6.15877778 9.81740631,6.55390936 9.81740631,7.03697661 C9.81740631,7.52007602 9.4336316,7.91533626 8.96469506,7.91533626 Z M12.3757587,4.84131871 L2.56897027,4.84131871 C2.09990882,4.84131871 1.7161341,4.44605848 1.7161341,3.96295906 C1.7161341,3.48002047 2.09990882,3.08476023 2.56897027,3.08476023 L12.3757587,3.08476023 C12.8448201,3.08476023 13.2284699,3.48002047 13.2284699,3.96295906 C13.2284699,4.44605848 12.8448201,4.84131871 12.3757587,4.84131871 Z" id="Fill-1" fill="#FFFFFF" mask="url(#mask-3)"></path>
                        </g>
                        <path d="M18.8726289,7.33333333 L15.9608308,7.33333333 L15.9608308,9.0588384 L18.4411672,9.0588384 L18.4411672,20.2745265 L15.9608308,20.2745265 L15.9608308,20.7058554 C15.9608308,21.4176176 15.378408,22 14.6666667,22 L18.8726289,22 C19.5843702,22 20.1666667,21.4176176 20.1666667,20.7058554 L20.1666667,8.62747793 C20.1666667,7.91574737 19.5843702,7.33333333 18.8726289,7.33333333 Z" id="Fill-3" fill="#FFFFFF"></path>
                    </g>
                </g>
            </g>
        </g>
    </g>
</svg>