<?xml version="1.0" encoding="UTF-8"?>
<svg width="34px" height="34px" viewBox="0 0 34 34" version="1.1" xmlns="http://www.w3.org/2000/svg" xmlns:xlink="http://www.w3.org/1999/xlink">
    <!-- Generator: Sketch 52 (66869) - http://www.bohemiancoding.com/sketch -->
    <title>kjb</title>
    <desc>Created with Sketch.</desc>
    <defs>
        <linearGradient x1="7.75951292%" y1="3.17482907%" x2="96.2942019%" y2="100%" id="linearGradient-1">
            <stop stop-color="#FBCF06" offset="0%"></stop>
            <stop stop-color="#FFA609" offset="100%"></stop>
        </linearGradient>
        <polygon id="path-2" points="0 0 15 0 15 16.1461187 0 16.1461187"></polygon>
    </defs>
    <g id="Page-1" stroke="none" stroke-width="1" fill="none" fill-rule="evenodd">
        <g id="考试中心-段级位考试" transform="translate(-206.000000, -104.000000)">
            <g id="分组-3" transform="translate(206.000000, 104.000000)">
                <g id="分组-7">
                    <g id="分组-6">
                        <rect id="矩形-copy-8" fill="url(#linearGradient-1)" x="0" y="0" width="34" height="34" rx="14"></rect>
                        <g id="qianyishenqing" transform="translate(10.000000, 9.000000)">
                            <mask id="mask-3" fill="white">
                                <use xlink:href="#path-2"></use>
                            </mask>
                            <g id="Clip-2"></g>
                            <path d="M13.7722792,1.14539719 C13.5279351,0.603486932 13.0322338,0 12.0249545,0 L1.99766883,0 C1.99766883,0 0.000993506494,0.0626016428 0,1.9920371 L0,12.0349293 C0,12.0349293 0.0538831169,13.2841829 0.998298701,13.8533336 L0.998298701,14.0481358 C0.998298701,14.0481358 0.99937013,14.0743907 1.00332468,14.1117427 L0.998298701,14.1117427 L1.00431818,14.1208294 C1.03924675,14.4820898 1.2975,16.1461187 3.07875974,16.1461187 L12.9923571,16.1461187 C14.7087857,16.1461187 15,14.0491411 15,14.0481358 L15,2.99813774 C15,2.99813774 14.8933052,1.59442994 13.7722792,1.14539719 Z M9.47575325,2.34220025 C9.72709091,2.08789094 10.1369416,2.08789094 10.3882987,2.34220025 L11.3008247,3.26553506 C11.5521818,3.51984438 11.5521818,3.93461969 11.3008247,4.18894871 L10.7164091,4.78027406 L8.89125974,2.93352559 L9.47575325,2.34220025 Z M3.89961039,7.98328632 L8.16325325,3.66923287 L9.98832468,5.51588278 L5.72475974,9.83094148 L3.10174675,10.6382385 L3.89961039,7.98328632 Z M13.9797078,15.1188289 L1.99766883,15.1188289 L1.99766883,14.1117427 L12.9814091,14.1117427 L12.9814091,2.03437599 L13.9797078,2.03437599 L13.9797078,15.1188289 Z" id="Fill-1" fill="#FFFFFF" mask="url(#mask-3)"></path>
                        </g>
                    </g>
                </g>
            </g>
        </g>
    </g>
</svg>