<?xml version="1.0" encoding="UTF-8"?>
<svg width="14px" height="13px" viewBox="0 0 14 13" version="1.1" xmlns="http://www.w3.org/2000/svg" xmlns:xlink="http://www.w3.org/1999/xlink">
    <!-- Generator: Sketch 52 (66869) - http://www.bohemiancoding.com/sketch -->
    <title>常见问题说明</title>
    <desc>Created with Sketch.</desc>
    <defs>
        <polygon id="path-1" points="0 0 12 0 12 13 0 13"></polygon>
    </defs>
    <g id="Page-1" stroke="none" stroke-width="1" fill="none" fill-rule="evenodd">
        <g id="常见问题说明" transform="translate(-14.000000, -633.000000)">
            <g id="分组-7" transform="translate(14.000000, 633.000000)">
                <g id="tishi" transform="translate(1.000000, 0.000000)">
                    <mask id="mask-2" fill="white">
                        <use xlink:href="#path-1"></use>
                    </mask>
                    <g id="Clip-2"></g>
                    <path d="M7.46367475,11.2771488 L6.87774566,11.2771488 C6.79978332,11.2781327 6.73724318,11.3398161 6.73761973,11.415385 C6.73761973,11.8173826 6.40622246,12.1451125 5.99928588,12.1451125 C5.59197274,12.1451125 5.25987149,11.8173826 5.25987149,11.415385 C5.26026441,11.3398161 5.1977079,11.2781327 5.11976193,11.2771488 L4.53460231,11.2771488 C4.45657448,11.2779581 4.39390336,11.3397526 4.39447637,11.415385 C4.39447637,12.2740494 5.12999428,13 5.99998986,13 C6.87000182,13 7.60481574,12.2744303 7.60481574,11.415385 C7.6050122,11.3394987 7.54194816,11.2777677 7.46367475,11.2771488 Z M11.9667942,10.3876665 C11.8609671,9.4585113 11.3195364,8.63301347 10.5345922,8.10312635 L10.5345922,5.63274247 C10.5345922,3.76967135 9.35754414,2.09707776 7.59636791,1.44366509 C7.52397196,0.639416064 6.8265839,0 5.99961331,0 C5.17303565,0 4.47530378,0.63873369 4.40222022,1.44298272 C2.64142054,2.09745862 1.46437251,3.76967135 1.46437251,5.63312333 L1.46437251,8.10344373 C0.679428241,8.63406083 0.17542346,9.46297054 0.0328090167,10.3869841 C0.0127208613,10.5364399 0.00178452237,10.6868795 0,10.8375889 C0,10.9138244 0.0628020899,10.9761267 0.140125935,10.9761267 L11.8598702,10.9761267 C11.9379635,10.9751904 12.0005691,10.9132689 11.9999961,10.8375889 C11.9999961,10.7664157 11.9914828,10.6056135 11.9667942,10.3876665 Z M6.84564063,2.11078871 C7.03864737,2.15479389 7.22729921,2.21485866 7.40963156,2.2904276 C8.76067871,2.84665753 9.66778908,4.19014061 9.66778908,5.63312333 L9.66778908,8.50883729 C9.66778908,8.5608564 9.69848614,8.60908277 9.74472,8.63301347 C10.3642931,8.93713005 10.8271065,9.47538022 11.0240752,10.1208742 L0.973743457,10.1208742 C1.17077765,9.47538022 1.63359107,8.93713005 2.25316414,8.63301347 C2.30113341,8.60908277 2.33125745,8.56115791 2.33119197,8.50883729 L2.33119197,5.63312333 C2.33119197,3.97355832 3.51775199,2.49158507 5.15327493,2.11078871 C5.21683012,2.09534802 5.26127946,2.03986943 5.2609684,1.97632932 L5.2609684,1.58461497 C5.2609684,1.18913964 5.59940552,0.855934883 6.0003173,0.855934883 C6.40021403,0.855934883 6.73870026,1.18982201 6.73870026,1.58461497 L6.73870026,1.97564694 C6.73768521,2.03931401 6.78193809,2.09522106 6.84564063,2.11078871 Z" id="Fill-1" fill="#FF9201" mask="url(#mask-2)"></path>
                </g>
            </g>
        </g>
    </g>
</svg>