<?xml version="1.0" encoding="UTF-8"?>
<svg width="166px" height="166px" viewBox="0 0 166 166" version="1.1" xmlns="http://www.w3.org/2000/svg" xmlns:xlink="http://www.w3.org/1999/xlink">
    <!-- Generator: Sketch 52 (66869) - http://www.bohemiancoding.com/sketch -->
    <title>支付失败</title>
    <desc>Created with Sketch.</desc>
    <defs>
        <linearGradient x1="7.75951292%" y1="3.17482907%" x2="96.2942019%" y2="100%" id="linearGradient-1">
            <stop stop-color="#98B5FF" offset="0%"></stop>
            <stop stop-color="#557BFF" offset="100%"></stop>
        </linearGradient>
        <circle id="path-2" cx="65" cy="65.6840671" r="65"></circle>
        <filter x="-23.1%" y="-23.1%" width="146.2%" height="146.2%" filterUnits="objectBoundingBox" id="filter-4">
            <feOffset dx="0" dy="0" in="SourceAlpha" result="shadowOffsetOuter1"></feOffset>
            <feGaussianBlur stdDeviation="10" in="shadowOffsetOuter1" result="shadowBlurOuter1"></feGaussianBlur>
            <feColorMatrix values="0 0 0 0 0.125490196   0 0 0 0 0.411764706   0 0 0 0 0.898039216  0 0 0 0.3 0" type="matrix" in="shadowBlurOuter1"></feColorMatrix>
        </filter>
    </defs>
    <g id="Page-1" stroke="none" stroke-width="1" fill="none" fill-rule="evenodd">
        <g id="已报名-提示" transform="translate(-105.000000, -188.000000)">
            <g id="分组-4" transform="translate(105.000000, 188.000000)">
                <g id="分组-3" transform="translate(18.000000, 17.000000)">
                    <g id="分组-2">
                        <mask id="mask-3" fill="white">
                            <use xlink:href="#path-2"></use>
                        </mask>
                        <g id="椭圆形">
                            <use fill="black" fill-opacity="1" filter="url(#filter-4)" xlink:href="#path-2"></use>
                            <use fill="url(#linearGradient-1)" fill-rule="evenodd" xlink:href="#path-2"></use>
                        </g>
                        <polygon id="路径" fill="#2069E5" opacity="0.300000012" mask="url(#mask-3)" points="12.8113208 128 12.8113208 85 26.2478934 85 26.2478934 94 34.213625 94 34.213625 67 46.3655587 67 46.3655587 111 53.4399576 111 53.4399576 54 65.749564 54 65.749564 97.5 113.142867 97.5 113.142867 10 137 10 130 142"></polygon>
                        <path d="M85.8490566,74.3886936 C80.9433962,74.1129836 75.8333333,75.4059463 70.5188679,78.2675815 C63.7735849,83.1732419 52.7358491,95.4373928 49.6698113,95.4373928 C46.6037736,95.4373928 41.0849057,96.9483842 34.9528302,86.8524871 C28.8207547,76.7565901 23.9150943,69.9056604 23.3018868,69.9056604 C22.8930818,69.9056604 20.8490566,71.0577473 17.1698113,73.3619211 C21.2578616,87.1444829 24.9371069,96.488594 28.2075472,101.394254 C33.1132075,108.752745 44.1509434,117.063792 57.0283019,110.280224 C69.9056604,103.496657 70.5188679,100.956261 71.745283,100.343053 C72.9716981,99.7298456 72.3584906,117.507346 66.8396226,129.777015 C63.1603774,137.956795 73.7893082,138.774405 98.7264151,132.229846 L112.830189,117.512864 L110.377358,115.060034 C109.968553,100.343053 110.786164,93.1889651 112.830189,93.5977702 C115.896226,94.2109777 117.735849,113.09777 117.735849,114.078902 C117.735849,114.73299 121.823899,110.563179 130,101.569468 L128.160377,93.5977702 C122.437107,80.5160091 111.808176,73.7707261 96.2735849,73.3619211 C81.9654088,74.1795312 78.490566,74.5217887 85.8490566,74.3886936 Z" id="路径-9" fill="#FFFFFF" mask="url(#mask-3)"></path>
                    </g>
                    <path d="M17.7830189,73.8011976 C16.5566038,70.2897527 15.9433962,68.2876776 15.9433962,67.7949724 C15.9433962,67.0559145 8.58490566,65.2162919 8.58490566,62.7634617 C8.58490566,60.3106315 10.4245283,51.7257259 14.1037736,52.952141 C17.7830189,54.178556 17.7830189,56.5780638 20.8490566,53.5386873 C23.9150943,50.4993108 27.5943396,51.1885827 25.754717,53.5386873 C23.9150943,55.8887919 21.4622642,63.8882351 22.6886792,70.1219523 C23.5062893,74.2777637 21.8710692,75.5041788 17.7830189,73.8011976 Z" id="路径-10" fill="#FEDDB8"></path>
                    <path d="M74.1981132,43.4150379 C73.3805031,49.2449531 73.3805031,54.2039359 74.1981132,58.2919862 C75.4245283,64.4240617 80.3301887,69.5527066 84.009434,69.5527066 C84.827044,69.4040502 84.827044,70.9649422 84.009434,74.2353824 C83.6006289,77.0752516 84.6226415,78.9135039 87.0754717,79.7501392 C90.754717,81.0050922 95.6603774,79.1266848 96.8867925,73.0089673 C97.7044025,68.930489 97.7044025,64.0248287 96.8867925,58.2919862 L102.40566,46.6256565 L92.5943396,39.245283 L80.9433962,39.245283 L74.1981132,43.4150379 Z" id="路径-8" fill="#FEDDB8"></path>
                    <path d="M77.1137187,26.0386423 C85.0854168,32.1505871 85.6986244,32.1707178 93.0571149,33.3971329 C100.415605,34.623548 105.934473,34.3890423 107.160889,38.8787316 C108.387304,43.3684208 107.160889,47.4636372 104.708058,50.5669442 C102.255228,53.6702511 102.868436,57.5192248 101.642021,59.1518499 C100.415605,60.7844749 96.1231527,62.810988 96.1231527,57.9254348 C96.1231527,53.0398815 99.1891904,47.170013 96.1231527,45.6612838 C93.0571149,44.1525547 89.9910772,43.7837251 86.3118319,45.0214151 C82.6325866,46.2591051 71.5948508,47.2270249 68.528813,40.5649778 C65.4627753,33.9029307 69.1420206,19.9266975 77.1137187,26.0386423 Z" id="路径-7" fill="#30447F"></path>
                    <path d="M48.4433962,36.100982 L16.5566038,41.3748051 C13.2861635,42.3309322 11.0377358,40.5729912 9.81132075,36.100982 C8.58490566,31.6289728 7.7672956,26.122528 7.35849057,19.5816475 C7.35849057,16.3112072 10.4245283,14.267182 16.5566038,13.449572 C22.6886792,12.6319619 31.2735849,11.120474 42.3113208,8.91510836 C47.2169811,7.8500338 50.2830189,9.36152167 51.509434,13.449572 C52.7358491,17.5376223 54.3710692,26.531333 56.4150943,40.4307041 L48.4433962,36.100982 Z" id="路径-11" fill="#2069E5"></path>
                    <path d="M50.8962264,38.5538122 L19.009434,43.8276353 C15.7389937,44.7837624 13.490566,43.0258214 12.2641509,38.5538122 C11.0377358,34.081803 10.2201258,28.5753581 9.81132075,22.0344776 C9.81132075,18.7640374 12.8773585,16.7200122 19.009434,15.9024022 C25.1415094,15.0847921 33.7264151,13.5733042 44.7641509,11.3679385 C49.6698113,10.302864 52.7358491,11.8143519 53.9622642,15.9024022 C55.1886792,19.9904525 56.8238994,28.9841632 58.8679245,42.8835343 L50.8962264,38.5538122 Z" id="路径-11" fill="#FFFFFF"></path>
                    <path d="M20.6226415,22.4586191 L41.9245283,22.4586191 C42.4768131,22.4586191 42.9245283,22.9063344 42.9245283,23.4586191 L42.9245283,23.9114493 C42.9245283,24.4637341 42.4768131,24.9114493 41.9245283,24.9114493 L20.6226415,24.9114493 C20.0703568,24.9114493 19.6226415,24.4637341 19.6226415,23.9114493 L19.6226415,23.4586191 C19.6226415,22.9063344 20.0703568,22.4586191 20.6226415,22.4586191 Z" id="矩形" fill="#2069E5" transform="translate(31.273585, 23.685034) rotate(-8.000000) translate(-31.273585, -23.685034) "></path>
                    <path d="M21.8490566,27.3642795 L43.1509434,27.3642795 C43.7032281,27.3642795 44.1509434,27.8119948 44.1509434,28.3642795 L44.1509434,28.8171097 C44.1509434,29.3693945 43.7032281,29.8171097 43.1509434,29.8171097 L21.8490566,29.8171097 C21.2967719,29.8171097 20.8490566,29.3693945 20.8490566,28.8171097 L20.8490566,28.3642795 C20.8490566,27.8119948 21.2967719,27.3642795 21.8490566,27.3642795 Z" id="矩形-copy" fill="#2069E5" transform="translate(32.500000, 28.590695) rotate(-8.000000) translate(-32.500000, -28.590695) "></path>
                    <path d="M21.8908305,32.898961 L34.6078116,32.898961 C35.1600963,32.898961 35.6078116,33.3466763 35.6078116,33.898961 L35.6078116,34.3517912 C35.6078116,34.904076 35.1600963,35.3517912 34.6078116,35.3517912 L21.8908305,35.3517912 C21.3385457,35.3517912 20.8908305,34.904076 20.8908305,34.3517912 L20.8908305,33.898961 C20.8908305,33.3466763 21.3385457,32.898961 21.8908305,32.898961 Z" id="矩形-copy-2" fill="#2069E5" transform="translate(28.249321, 34.125376) rotate(-8.000000) translate(-28.249321, -34.125376) "></path>
                </g>
            </g>
        </g>
    </g>
</svg>