<?xml version="1.0" encoding="UTF-8"?>
<svg width="30px" height="30px" viewBox="0 0 30 30" version="1.1" xmlns="http://www.w3.org/2000/svg" xmlns:xlink="http://www.w3.org/1999/xlink">
    <!-- Generator: Sketch 52 (66869) - http://www.bohemiancoding.com/sketch -->
    <title>已付款-考试报名-订单详情</title>
    <desc>Created with Sketch.</desc>
    <defs>
        <polygon id="path-1" points="0.00219512195 0.0292682927 29.9706951 0.0292682927 29.9706951 29.9999634 0.00219512195 29.9999634"></polygon>
        <polygon id="path-3" points="0 0 25 0 25 16.8170139 0 16.8170139"></polygon>
    </defs>
    <g id="Page-1" stroke="none" stroke-width="1" fill="none" fill-rule="evenodd">
        <g id="已付款-考试报名-订单详情" transform="translate(-24.000000, -87.000000)">
            <g id="分组-3" transform="translate(24.000000, 87.000000)">
                <g id="shijian-copy-10">
                    <g id="分组">
                        <mask id="mask-2" fill="white">
                            <use xlink:href="#path-1"></use>
                        </mask>
                        <g id="Clip-2"></g>
                        <path d="M15.0000916,30.0292683 C6.75000824,30.0292683 0,23.2792601 0,15.0293598 C0,6.77927653 6.75000824,0.0292682927 15.0000916,0.0292682927 C23.2499918,0.0292682927 30,6.77927653 30,15.0293598 C30,23.2792601 23.2499918,30.0292683 15.0000916,30.0292683 Z M15.0000942,1.5 C7.47867609,1.5 1.5,7.47867609 1.5,15.0000942 C1.5,22.5214746 7.47867609,28.5 15.0000942,28.5 C22.5214746,28.5 28.5,22.5214746 28.5,15.0000942 C28.5,7.47867609 22.5214746,1.5 15.0000942,1.5 Z" id="Fill-1" fill="#FFFFFF" mask="url(#mask-2)"></path>
                    </g>
                    <g id="duigou-copy-2" transform="translate(5.000000, 7.000000)">
                        <mask id="mask-4" fill="white">
                            <use xlink:href="#path-3"></use>
                        </mask>
                        <g id="Clip-2"></g>
                        <path d="M7.53547816,14.3053819 C7.3214141,14.3053819 7.10735005,14.2262102 6.94397888,14.067998 L2.03085523,9.30788135 C1.70400064,8.99126011 1.70400064,8.47802114 2.03085523,8.16148734 C2.35770983,7.84488796 2.8871339,7.8449754 3.21387624,8.1613999 L7.53547816,12.3483414 L16.4289809,3.73189398 C16.7557457,3.4152946 17.2852596,3.4152946 17.6120019,3.73189398 C17.9388565,4.04840592 17.9388565,4.56166675 17.6120019,4.87826613 L8.12708969,14.0679106 C7.96362872,14.2262102 7.74956466,14.3053819 7.53547816,14.3053819 Z" id="Fill-1" fill="#FFFFFF" mask="url(#mask-4)"></path>
                    </g>
                </g>
            </g>
        </g>
    </g>
</svg>