<?xml version="1.0" encoding="UTF-8"?>
<svg width="34px" height="34px" viewBox="0 0 34 34" version="1.1" xmlns="http://www.w3.org/2000/svg" xmlns:xlink="http://www.w3.org/1999/xlink">
    <!-- Generator: Sketch 52 (66869) - http://www.bohemiancoding.com/sketch -->
    <title>规范</title>
    <desc>Created with Sketch.</desc>
    <defs>
        <linearGradient x1="50%" y1="0%" x2="50%" y2="100%" id="linearGradient-1">
            <stop stop-color="#459CFF" offset="0%"></stop>
            <stop stop-color="#2069E5" offset="100%"></stop>
        </linearGradient>
    </defs>
    <g id="Page-1" stroke="none" stroke-width="1" fill="none" fill-rule="evenodd">
        <g id="规范" transform="translate(-624.000000, -5398.000000)">
            <g id="kaoshizhongxin" transform="translate(624.000000, 5398.000000)">
                <g>
                    <circle id="椭圆形-copy" fill="url(#linearGradient-1)" cx="17" cy="17" r="17"></circle>
                    <g transform="translate(6.000000, 1.000000)" id="矩形" stroke="#FFFFFF">
                        <path d="M4.92219503,4.49162307 C4.87364576,4.47400045 4.82083002,4.47184714 4.77100731,4.48545911 C4.6378175,4.52184765 4.55934456,4.65931807 4.59573311,4.79250789 L6.69384333,12.4720379 C6.99301702,13.5670773 7.84186428,14.4266658 8.93305534,14.7395847 L17.1642224,17.100022 C17.2183637,17.1155481 17.2761616,17.1123367 17.3282497,17.0909083 C17.4559381,17.0383789 17.5168664,16.8922835 17.464337,16.7645952 L14.2772298,9.01738299 C13.9291473,8.17126503 13.2405475,7.51105486 12.3805326,7.1988829 L4.92219503,4.49162307 Z" stroke-width="1.5" transform="translate(11.035021, 10.793164) rotate(-45.000000) translate(-11.035021, -10.793164) "></path>
                        <path d="M5.95432282,13.6103444 L3.61912955,21.0186217 C3.51948618,21.334735 3.46878494,21.6642307 3.46878494,21.9956767 C3.46878494,23.7906021 4.9238595,25.2456767 6.71878494,25.2456767 L14.9581167,25.2456767 C15.3108224,25.2456767 15.6611762,25.1882632 15.9954339,25.0756886 C17.6964775,24.5027941 18.611023,22.6594031 18.0381286,20.9583595 L15.5573322,13.592356 L11.8418656,15.3321673 C11.0914399,15.683563 10.2225725,15.6778513 9.47683145,15.3166201 L5.95432282,13.6103444 Z" stroke-width="1.5"></path>
                        <path d="M19,11.5238004 C18.9587132,11.5082183 18.9145586,11.5 18.8695263,11.5 C18.6654425,11.5 18.5,11.6654425 18.5,11.8695263 L18.5,16.5207118 C18.5,16.658783 18.6119288,16.7707118 18.75,16.7707118 C18.8880712,16.7707118 19,16.658783 19,16.5207118 L19,11.5238004 Z"></path>
                    </g>
                </g>
            </g>
        </g>
    </g>
</svg>