<?xml version="1.0" encoding="UTF-8"?>
<svg width="20px" height="20px" viewBox="0 0 20 20" version="1.1" xmlns="http://www.w3.org/2000/svg" xmlns:xlink="http://www.w3.org/1999/xlink">
    <!-- Generator: Sketch 52 (66869) - http://www.bohemiancoding.com/sketch -->
    <title>规范 copy 2</title>
    <desc>Created with Sketch.</desc>
    <g id="Page-1" stroke="none" stroke-width="1" fill="none" fill-rule="evenodd">
        <g id="规范" transform="translate(-294.000000, -2630.000000)" stroke="#B0B0B0" stroke-width="1.5">
            <g id="常用信息" transform="translate(294.000000, 2630.000000)">
                <g transform="translate(0.000000, 1.000000)">
                    <g id="分组">
                        <path d="M15.9917934,16.6341803 L15.9917843,16.6341982 L15.9917934,16.6341803 Z M15.9917934,16.6341803 L18.926421,10.8532954 C19.3578867,10.0039643 19.3578867,8.99689685 18.9263256,8.14637411 L15.9919373,2.36607444 C15.4876993,1.37389026 14.4750568,0.75 13.3707446,0.75 L6.69003957,0.75 C5.59465619,0.75 4.58919389,1.36352652 4.08117276,2.34330171 L1.0851295,8.12408869 C0.638289544,8.98601006 0.638289544,10.0139671 1.08513957,10.8759307 L4.08125055,16.6556209 C4.58903038,17.6359097 5.59454233,18.2498182 6.69003957,18.25 L13.3708526,18.25 C14.4755398,18.2501591 15.4879199,17.6266224 15.9918025,16.6341624 L15.9917934,16.6341803 Z" id="Fill-1"></path>
                    </g>
                    <path d="M10.0000101,12.7 C8.34314607,12.7 7,11.3568741 7,9.7000101 C7,8.04314607 8.34314607,6.7 10.0000101,6.7 C11.6567933,6.7 13,8.04314607 13,9.7000101 C13,11.3568741 11.6567933,12.7 10.0000101,12.7 Z" id="Fill-3"></path>
                </g>
            </g>
        </g>
    </g>
</svg>