<?xml version="1.0" encoding="UTF-8"?>
<svg width="20px" height="20px" viewBox="0 0 20 20" version="1.1" xmlns="http://www.w3.org/2000/svg" xmlns:xlink="http://www.w3.org/1999/xlink">
    <!-- Generator: Sketch 52 (66869) - http://www.bohemiancoding.com/sketch -->
    <title>规范</title>
    <desc>Created with Sketch.</desc>
    <g id="Page-1" stroke="none" stroke-width="1" fill="none" fill-rule="evenodd">
        <g id="规范" transform="translate(-104.000000, -2630.000000)" stroke="#B0B0B0" stroke-width="1.5">
            <g id="已报名" transform="translate(104.000000, 2630.000000)">
                <g id="分组-copy-2">
                    <rect id="矩形" x="0.75" y="6.17521994" width="3.92521994" height="12.1656891" rx="1.96260997"></rect>
                    <path d="M4.77068502,8.43115699 L4.77068502,16.2051816 C10.4363627,18.453121 13.9939971,19.1603357 15.1815743,18.4477894 C17.0259335,17.3411739 17.4866578,16.3126297 18.4685786,11.4381346 C19.1645595,7.9831153 18.7063193,7.11711594 17.1717821,6.85587593 C16.8606376,6.80290661 16.480696,6.95591428 15.8299658,7.38355665 C15.867123,7.35913795 15.4425268,7.6413348 15.3276605,7.71420359 C15.1202822,7.84576009 14.9493143,7.9415413 14.7793574,8.01515781 C14.2198059,8.25752656 13.6726854,8.23591842 13.2398244,7.80305736 C12.7300586,7.29329159 12.7105566,6.84159257 12.8167265,4.82672025 C12.8353617,4.47306578 12.8448181,4.2722619 12.8520478,4.0541078 C12.8924218,2.83582288 12.7925454,2.08555745 12.5716452,1.78630703 C11.5056129,0.596062238 9.305545,1.27005663 9.305545,3.3719852 C9.305545,5.72975377 7.73351403,7.42427288 4.77068502,8.43115699 Z M14.298261,6.73893834 C14.298999,6.74050145 14.2997408,6.74165341 14.3004845,6.74239719 C14.2982532,6.74016586 14.2960083,6.73799607 14.2937538,6.73588555 Z" id="路径-2"></path>
                </g>
            </g>
        </g>
    </g>
</svg>