<?xml version="1.0" encoding="UTF-8"?>
<svg width="20px" height="20px" viewBox="0 0 20 20" version="1.1" xmlns="http://www.w3.org/2000/svg" xmlns:xlink="http://www.w3.org/1999/xlink">
    <!-- Generator: Sketch 52 (66869) - http://www.bohemiancoding.com/sketch -->
    <title>规范 copy 3</title>
    <desc>Created with Sketch.</desc>
    <g id="Page-1" stroke="none" stroke-width="1" fill="none" fill-rule="evenodd">
        <g id="规范" transform="translate(-379.000000, -2630.000000)" stroke="#B0B0B0">
            <g id="考试中心" transform="translate(378.000000, 2624.000000)">
                <g id="分组-2">
                    <path d="M4.78763111,4.43614319 C4.73804314,4.41775953 4.68390265,4.41557499 4.63299476,4.42990371 C4.5000878,4.46731216 4.42267096,4.60538009 4.46007942,4.73828705 L6.65791813,12.5468971 C6.963074,13.6310728 7.80780739,14.4799627 8.89047215,14.7904366 L17.1409984,17.1564256 C17.1951398,17.1719516 17.2529377,17.1687402 17.3050258,17.1473118 C17.4327141,17.0947824 17.4936425,16.948687 17.4411131,16.8209987 L14.2478073,9.05871913 C13.9026622,8.21974146 13.22256,7.56320937 12.3719351,7.24785874 L4.78763111,4.43614319 Z" id="矩形" stroke-width="1.5" transform="translate(10.955324, 10.793332) rotate(-45.000000) translate(-10.955324, -10.793332) "></path>
                    <path d="M5.95432282,13.6103444 L3.61912955,21.0186217 C3.51948618,21.334735 3.46878494,21.6642307 3.46878494,21.9956767 C3.46878494,23.7906021 4.9238595,25.2456767 6.71878494,25.2456767 L14.9581167,25.2456767 C15.3108224,25.2456767 15.6611762,25.1882632 15.9954339,25.0756886 C17.6964775,24.5027941 18.611023,22.6594031 18.0381286,20.9583595 L15.5573322,13.592356 L11.8418656,15.3321673 C11.0914399,15.683563 10.2225725,15.6778513 9.47683145,15.3166201 L5.95432282,13.6103444 Z" id="矩形" stroke-width="1.5"></path>
                    <path d="M19,11.5238004 C18.9587132,11.5082183 18.9145586,11.5 18.8695263,11.5 C18.6654425,11.5 18.5,11.6654425 18.5,11.8695263 L18.5,16.5207118 C18.5,16.658783 18.6119288,16.7707118 18.75,16.7707118 C18.8880712,16.7707118 19,16.658783 19,16.5207118 L19,11.5238004 Z" id="矩形"></path>
                </g>
            </g>
        </g>
    </g>
</svg>