<?xml version="1.0" encoding="UTF-8"?>
<svg width="32px" height="32px" viewBox="0 0 32 32" version="1.1" xmlns="http://www.w3.org/2000/svg" xmlns:xlink="http://www.w3.org/1999/xlink">
    <!-- Generator: Sketch 52 (66869) - http://www.bohemiancoding.com/sketch -->
    <title>订单详情 copy</title>
    <desc>Created with Sketch.</desc>
    <defs>
        <polygon id="path-1" points="0.00219512195 0.0292682927 29.9706951 0.0292682927 29.9706951 29.9999634 0.00219512195 29.9999634"></polygon>
    </defs>
    <g id="Page-1" stroke="none" stroke-width="1" fill="none" fill-rule="evenodd">
        <g id="订单详情-copy" transform="translate(-23.000000, -86.000000)">
            <g id="分组-8" transform="translate(23.000000, 86.000000)">
                <g id="shijian-copy-10" transform="translate(1.000000, 1.000000)">
                    <g id="分组">
                        <mask id="mask-2" fill="white">
                            <use xlink:href="#path-1"></use>
                        </mask>
                        <g id="Clip-2"></g>
                        <path d="M15.0000916,30.0292683 C6.75000824,30.0292683 0,23.2792601 0,15.0293598 C0,6.77927653 6.75000824,0.0292682927 15.0000916,0.0292682927 C23.2499918,0.0292682927 30,6.77927653 30,15.0293598 C30,23.2792601 23.2499918,30.0292683 15.0000916,30.0292683 Z M15.0000942,1.5 C7.47867609,1.5 1.5,7.47867609 1.5,15.0000942 C1.5,22.5214746 7.47867609,28.5 15.0000942,28.5 C22.5214746,28.5 28.5,22.5214746 28.5,15.0000942 C28.5,7.47867609 22.5214746,1.5 15.0000942,1.5 Z" id="Fill-1" fill="#FFFFFF" mask="url(#mask-2)"></path>
                    </g>
                    <path d="M20.8538641,17.025974 L14.5617565,17.025974 C14.0064196,17.025974 13.6363636,16.4660974 13.6363636,16.0928948 L13.6363636,6.38762464 C13.6363636,5.82774797 14.0064196,5.45454545 14.5617565,5.45454545 C15.1169127,5.45454545 15.4869686,5.82774797 15.4869686,6.38762464 L15.4869686,14.9729592 L20.8538641,14.9729592 C21.4090203,14.9729592 21.7792208,15.3463076 21.7792208,15.9061842 C21.7792208,16.4660974 21.4090203,17.025974 20.8538641,17.025974 Z" id="Fill-3" fill="#FFFFFF"></path>
                </g>
            </g>
        </g>
    </g>
</svg>